<svg version="1.1" id="Layer_1" xmlns="http://www.w3.org/2000/svg" xmlns:xlink="http://www.w3.org/1999/xlink" x="0px" y="0px" viewBox="0 0 500 500" style="enable-background:new 0 0 500 500;" xml:space="preserve">
				<g>
					<path id="marco" d="M410.1,5H89.9C43.1,5,5,43.1,5,89.9v320.2C5,456.9,43.1,495,89.9,495h320.2c46.8,0,84.9-38.1,84.9-84.9V89.9
						C495,43.1,456.9,5,410.1,5z M485.9,410.1c0,41.9-33.9,75.8-75.8,75.8H89.9c-41.9,0-75.8-33.9-75.8-75.8V89.9
						C14.1,48,48,14.1,89.9,14.1h320.2c41.9,0,75.8,33.9,75.8,75.8V410.1z"></path>
					<path id="rectangulo" fill="#375f9e" d="M410.1,14.1H89.9C48,14.1,14.1,48,14.1,89.9v320.2c0,41.9,33.9,75.8,75.8,75.8h320.2
						c41.9,0,75.8-33.9,75.8-75.8V89.9C485.9,48,452,14.1,410.1,14.1z"></path>
					<g id="logotipo" fill="white">
						<path d="M122.8,438.7l-2.9-20.9h-16.2l-2.8,20.9H86.6l17.9-117.9H120l17.9,117.9H122.8z M111.8,355.4l-6.4,49.3h12.8
							L111.8,355.4z"></path>
						<path d="M157.5,439.4c-6.6,0-11.6-1.4-15.9-4.1l5.6-11.5c2.6,1.5,6.3,2.4,10.2,2.4c5.5,0,12.2-4.4,12.2-15.7
							c0-11.1-5.8-20.9-13.1-31.3c-10.1-14.4-14.2-22.9-14.2-34.4c0-15.4,9.9-24.9,25-24.9c5.8,0,11,2,12.7,3.1l-5.5,11.3
							c-2.1-0.9-4.3-1.5-7.3-1.5c-5,0-9,3.8-9,10.4c0,8.4,5,16.2,12.4,26.6c9.6,13.9,15.3,24.4,15.3,39.3
							C185.9,430.4,171.2,439.4,157.5,439.4z"></path>
						<path d="M194.7,438.7V320.8h38.8v13h-22.6v53.1h17.9v13h-17.9v25.8h22.6v13H194.7z"></path>
						<path d="M287.9,438.7v-62.9l-10.4,31h-7l-10.4-31v62.9h-15.6V320.8h7.8l21.7,61.4l21.8-61.4h7.8v117.9H287.9z"></path>
						<path d="M345.3,439.4c-12.2,0-32.4-5-32.4-59.9c0-54.8,20.2-59.6,32.4-59.6c4.6,0,7.9,1.1,7.9,1.1v12.7
							c-1.7-0.3-3.4-0.8-5.5-0.8c-7,0-18.5,5-18.5,46.6c0,41.8,11.6,46.9,18.8,46.9c2,0,3.5-0.3,5.2-0.6v12.5
							C353.2,438.4,349.9,439.4,345.3,439.4z"></path>
						<path d="M386.7,439.4c-13,0-26.9-8.7-26.9-59.7c0-51,13.9-59.7,26.9-59.7c13,0,26.7,8.7,26.7,59.7
							C413.4,430.7,399.7,439.4,386.7,439.4z M386.7,333c-5.2,0-10.5,7.5-10.5,46.7c0,39.3,5.3,46.7,10.5,46.7c5.2,0,10.5-7.5,10.5-46.7
							C397.2,340.5,391.9,333,386.7,333z"></path>
					</g>
					<g id="isotipo" fill="white">
						<path d="M250,139.7c18.2,0,33.1-14.8,33.1-33.1c0-18.2-14.8-33.1-33.1-33.1c-18.2,0-33.1,14.8-33.1,33.1
							C216.9,124.9,231.8,139.7,250,139.7z"></path>
						<rect x="216.5" y="151.6" width="67.1" height="67.1"></rect>
						<path d="M185.3,73.1h-27.7c-10.9,0-19.7,8.8-19.7,19.7v47.4H205V92.8C205,81.9,196.2,73.1,185.3,73.1z"></path>
						<path d="M342.3,73.1h-27.7c-10.9,0-19.7,8.8-19.7,19.7v47.4H362V92.8C362,81.9,353.2,73.1,342.3,73.1z"></path>
						<path d="M362,199v-47.4H295v67.1h47.4C353.2,218.7,362,209.8,362,199z"></path>
						<path d="M157.7,218.7H205v-67.1H138V199C138,209.8,146.8,218.7,157.7,218.7z"></path>
						<path d="M236.2,297.2h27.7c10.9,0,19.7-8.8,19.7-19.7v-47.4h-67.1v47.4C216.5,288.3,225.3,297.2,236.2,297.2z"></path>
					</g>
				</g>
				</svg>